<svg xmlns="http://www.w3.org/2000/svg" viewBox="0 0 360 260" role="img" aria-label="小坨 奶牛猫">
  <defs>
    <linearGradient id="bg" x1="0" y1="0" x2="1" y2="1">
      <stop offset="0" stop-color="#f0ecff"/>
      <stop offset="1" stop-color="#94b5ff"/>
    </linearGradient>
  </defs>
  <rect width="360" height="260" fill="url(#bg)"/>
  <circle cx="304" cy="42" r="48" fill="#fff" opacity=".44"/>
  <path d="M0 198c60-35 126-35 180-15 66 25 109 4 180-32v109H0z" fill="#fff" opacity=".82"/>
  <path d="M126 95 96 48l60 27zm108 0 30-47-60 27z" fill="#1d2026"/>
  <circle cx="180" cy="128" r="68" fill="#fbfbfb"/>
  <path d="M132 80c20-14 45-17 63-6-17 16-31 30-53 33z" fill="#1d2026"/>
  <circle cx="156" cy="127" r="7" fill="#1f1f1f"/>
  <circle cx="204" cy="127" r="7" fill="#1f1f1f"/>
  <path d="M174 143c5-5 11-5 16 0 0 8-16 8-16 0z" fill="#f3a0a0"/>
  <path d="M162 157c10 9 25 9 36 0" fill="none" stroke="#333" stroke-width="5" stroke-linecap="round"/>
  <rect x="18" y="18" width="112" height="34" rx="17" fill="#fff" opacity=".9"/>
  <text x="36" y="41" font-family="PingFang SC, Arial, sans-serif" font-size="19" font-weight="700" fill="#4e64bb">小坨</text>
</svg>
