<svg xmlns="http://www.w3.org/2000/svg" viewBox="0 0 360 260" role="img" aria-label="雪球 侏儒兔">
  <defs>
    <linearGradient id="bg" x1="0" y1="0" x2="1" y2="1">
      <stop offset="0" stop-color="#ecfff4"/>
      <stop offset="1" stop-color="#a4dfd2"/>
    </linearGradient>
  </defs>
  <rect width="360" height="260" fill="url(#bg)"/>
  <path d="M0 195c56-26 106-31 159-13 72 25 128 8 201-34v112H0z" fill="#fff" opacity=".84"/>
  <path d="M139 99c-31-43-28-81-4-87 25 12 31 54 23 90z" fill="#fff"/>
  <path d="M219 99c31-43 28-81 4-87-25 12-31 54-23 90z" fill="#fff"/>
  <ellipse cx="180" cy="140" rx="76" ry="61" fill="#fff"/>
  <circle cx="156" cy="133" r="6" fill="#2f2f2f"/>
  <circle cx="204" cy="133" r="6" fill="#2f2f2f"/>
  <ellipse cx="180" cy="149" rx="11" ry="7" fill="#f0a7ad"/>
  <path d="M166 163c11 10 19 10 28 0" fill="none" stroke="#b5757b" stroke-width="5" stroke-linecap="round"/>
  <rect x="18" y="18" width="112" height="34" rx="17" fill="#fff" opacity=".92"/>
  <text x="36" y="41" font-family="PingFang SC, Arial, sans-serif" font-size="19" font-weight="700" fill="#2f997f">雪球</text>
</svg>
