<svg xmlns="http://www.w3.org/2000/svg" viewBox="0 0 360 260" role="img" aria-label="橘座 中华田园猫">
  <defs>
    <linearGradient id="bg" x1="0" y1="0" x2="1" y2="1">
      <stop offset="0" stop-color="#fff4d7"/>
      <stop offset="1" stop-color="#ff9b6a"/>
    </linearGradient>
  </defs>
  <rect width="360" height="260" fill="url(#bg)"/>
  <circle cx="68" cy="56" r="45" fill="#fff" opacity=".4"/>
  <path d="M0 201c64-28 124-24 175-3 72 30 123 2 185-43v105H0z" fill="#fff7e8" opacity=".86"/>
  <path d="M120 97 100 44l53 31zm120 0 20-53-53 31z" fill="#d66e1d"/>
  <circle cx="180" cy="132" r="70" fill="#ee9133"/>
  <path d="M139 89c26-18 55-20 83 0" fill="none" stroke="#b95e1a" stroke-width="9" stroke-linecap="round"/>
  <path d="M136 113c31-14 58-14 88 0" fill="none" stroke="#ffbd64" stroke-width="8" stroke-linecap="round"/>
  <circle cx="156" cy="130" r="7" fill="#2a1d12"/>
  <circle cx="204" cy="130" r="7" fill="#2a1d12"/>
  <path d="M174 147c5-5 12-5 17 0 0 8-17 8-17 0z" fill="#6b3b19"/>
  <path d="M163 162c11 9 24 9 35 0" fill="none" stroke="#6b3b19" stroke-width="5" stroke-linecap="round"/>
  <rect x="18" y="18" width="112" height="34" rx="17" fill="#fff" opacity=".9"/>
  <text x="36" y="41" font-family="PingFang SC, Arial, sans-serif" font-size="19" font-weight="700" fill="#c15d18">橘座</text>
</svg>
